<?xml version="1.0" standalone="no"?>
<!DOCTYPE svg PUBLIC "-//W3C//DTD SVG 20010904//EN"
 "http://www.w3.org/TR/2001/REC-SVG-20010904/DTD/svg10.dtd">
<svg version="1.0" xmlns="http://www.w3.org/2000/svg"
 width="300.000000pt" height="200.000000pt" viewBox="0 0 300.000000 200.000000"
 preserveAspectRatio="xMidYMid meet">
<metadata>
Created by potrace 1.10, written by Peter Selinger 2001-2011
</metadata>
<g transform="translate(0.000000,200.000000) scale(0.100000,-0.100000)"
fill="#4f8830" stroke="none">
<path d="M1384 1706 c-8 -32 12 -58 40 -54 17 2 21 10 21 38 0 31 -3 35 -27
38 -22 3 -29 -2 -34 -22z m52 -25 c-11 -18 -36 -13 -36 7 0 10 3 22 7 26 10
10 37 -20 29 -33z"/>
<path d="M1477 1724 c-14 -14 -7 -65 9 -71 26 -10 49 11 49 43 0 24 -5 30 -25
32 -14 2 -29 0 -33 -4z m43 -35 c0 -22 -25 -26 -33 -5 -6 16 12 38 25 30 4 -3
8 -14 8 -25z"/>
<path d="M1554 1690 c-1 -27 3 -40 12 -40 8 0 11 6 8 15 -4 10 0 15 15 15 16
0 21 6 21 25 0 21 -5 25 -28 25 -25 0 -27 -3 -28 -40z m37 7 c-13 -13 -26 -3
-16 12 3 6 11 8 17 5 6 -4 6 -10 -1 -17z"/>
<path d="M1630 1712 c0 -11 10 -24 23 -31 21 -11 20 -11 -7 -6 -26 6 -28 4
-16 -10 7 -9 23 -15 34 -13 28 4 33 35 7 43 -28 9 -27 25 1 17 14 -3 19 -2 14
6 -12 20 -56 15 -56 -6z"/>
<path d="M1700 1665 c0 -8 5 -15 10 -15 6 0 10 7 10 15 0 8 -4 15 -10 15 -5 0
-10 -7 -10 -15z"/>
<path d="M1730 1665 c0 -8 5 -15 10 -15 6 0 10 7 10 15 0 8 -4 15 -10 15 -5 0
-10 -7 -10 -15z"/>
<path d="M1760 1665 c0 -8 5 -15 10 -15 6 0 10 7 10 15 0 8 -4 15 -10 15 -5 0
-10 -7 -10 -15z"/>
<path d="M1460 1549 c-71 -30 -105 -107 -120 -270 -5 -60 -8 -115 -5 -122 2
-6 6 -26 9 -43 5 -29 2 -32 -24 -38 -17 -3 -30 -11 -30 -17 0 -8 4 -8 14 1 8
6 25 10 38 8 20 -3 17 -6 -21 -25 -25 -12 -46 -21 -48 -19 -2 2 -5 16 -6 32
-2 22 3 29 23 34 26 7 27 9 16 85 -6 36 -5 45 5 40 8 -6 10 -4 4 4 -4 8 -22
11 -46 9 l-39 -3 -10 50 c-5 27 -19 93 -29 145 -11 52 -18 96 -16 98 9 9 26
-45 45 -144 25 -125 30 -145 37 -127 4 10 -28 193 -43 245 -3 9 -15 23 -28 31
-20 14 -32 13 -116 -4 -52 -11 -97 -24 -101 -30 -4 -7 -30 -90 -59 -186 l-53
-175 18 -58 c26 -86 49 -92 201 -54 18 5 23 0 28 -31 5 -27 3 -42 -8 -54 -9
-10 -16 -23 -16 -29 0 -7 -22 -28 -49 -47 -60 -44 -85 -76 -147 -190 -26 -49
-63 -112 -81 -139 -18 -26 -33 -60 -33 -75 -1 -14 -7 -37 -15 -51 -8 -14 -14
-35 -15 -46 0 -21 16 -18 385 75 l384 96 208 -16 208 -16 67 23 c124 42 112
26 195 252 41 112 72 210 69 218 -3 7 -15 14 -27 14 -17 0 -20 4 -15 23 3 12
6 28 6 35 0 6 4 12 10 12 5 0 7 -13 3 -32 -7 -34 11 -33 20 2 6 25 -28 70 -54
70 -11 0 -22 6 -24 13 -3 7 8 77 24 157 16 80 26 148 23 151 -11 10 -181 41
-191 34 -5 -3 -60 -67 -122 -143 -62 -75 -115 -140 -119 -144 -3 -5 -6 45 -5
110 0 150 -13 181 -100 231 -49 28 -71 35 -130 38 -38 1 -81 -2 -95 -8z m194
-27 c51 -29 76 -92 76 -192 0 -162 -33 -282 -87 -317 -24 -16 -28 -15 -86 17
-52 28 -73 34 -125 35 l-62 0 -11 40 c-15 53 -5 244 16 312 19 64 56 110 98
123 44 13 144 4 181 -18z m-470 -139 c37 -189 32 -176 72 -168 26 4 34 2 34
-8 0 -8 3 -35 6 -60 6 -44 6 -46 -22 -49 -16 -2 -28 -7 -28 -13 1 -5 5 -27 8
-47 6 -32 4 -39 -16 -49 -13 -7 -34 -13 -48 -14 -14 -1 -35 -5 -47 -9 -20 -6
-23 -3 -29 32 -11 68 -11 68 -117 45 l-94 -20 -17 52 -16 52 54 177 c30 98 56
179 58 181 4 4 137 33 159 34 13 1 22 -27 43 -136z m565 53 c14 -31 19 -82 24
-211 6 -133 10 -171 22 -177 8 -5 12 -14 9 -21 -3 -10 19 -19 77 -31 l81 -17
-6 -34 c-9 -47 14 -82 59 -87 46 -5 45 9 0 18 -19 3 -38 11 -42 17 -4 6 2 8
18 4 13 -4 31 -7 39 -7 42 -1 42 -14 -9 -151 -56 -153 -46 -145 -177 -134
l-82 7 14 26 c19 37 19 203 -1 241 -21 41 -71 80 -120 93 l-43 12 32 16 c62
34 97 147 99 320 0 68 -4 106 -16 133 -9 21 -12 35 -6 31 6 -3 19 -25 28 -48z
m384 3 c58 -10 77 -17 77 -28 -1 -9 -14 -79 -30 -156 -15 -77 -26 -143 -24
-147 3 -5 15 -8 28 -8 32 0 34 -5 22 -51 -10 -39 -11 -40 -46 -34 l-35 6 -23
-64 -23 -63 -55 9 -55 10 3 56 3 55 -35 7 c-19 4 -61 12 -92 19 l-58 11 0 50
c0 49 2 53 123 199 67 82 127 147 133 145 6 -2 45 -9 87 -16z m-1043 -398 c0
-11 -149 -41 -155 -31 -3 4 28 14 68 23 92 19 87 18 87 8z m360 -2 c0 -6 6 -9
13 -6 6 2 20 0 30 -5 15 -8 16 -12 5 -25 -7 -9 -13 -26 -13 -37 0 -20 -6 -21
-95 -23 -52 -2 -133 -5 -180 -9 -61 -4 -81 -3 -70 5 8 6 23 11 34 11 30 0 96
22 91 31 -3 4 23 21 57 38 60 31 128 41 128 20z m448 -13 c61 -13 80 -21 71
-30 -6 -7 -132 25 -143 35 -13 12 -4 11 72 -5z m-310 -28 c7 -7 12 -16 12 -20
0 -8 -64 -38 -81 -38 -14 0 -21 41 -9 55 15 18 61 20 78 3z m640 -7 c20 -1 14
-32 -29 -142 -22 -57 -52 -139 -67 -183 -29 -86 -39 -96 -129 -132 -47 -19
-54 -20 -48 -6 4 9 31 82 61 162 30 80 69 182 87 228 l32 83 40 -5 c22 -3 46
-5 53 -5z m-569 -42 c17 -6 31 -15 31 -20 0 -5 7 -9 15 -9 8 0 26 -17 40 -37
22 -33 25 -48 25 -118 0 -59 -5 -89 -18 -115 -19 -34 -42 -51 -42 -31 0 6 -9
11 -20 11 -78 0 -178 112 -182 204 -3 75 -1 80 55 103 62 26 57 26 96 12z
m-169 -38 c-5 -11 -10 -32 -10 -48 0 -16 -9 -36 -20 -46 -25 -21 -27 -57 -2
-57 14 0 15 2 2 10 -11 7 -12 14 -4 27 14 23 34 28 34 9 0 -27 46 -109 79
-140 16 -16 53 -37 81 -46 56 -19 55 -26 -8 -36 -36 -6 -44 -3 -65 20 -13 14
-28 26 -32 26 -5 0 0 -9 9 -19 18 -19 17 -20 -15 -29 -26 -7 -14 -8 51 -6 100
3 139 9 152 22 6 6 24 6 46 1 20 -5 67 -9 105 -9 70 0 80 -8 55 -43 -12 -15
-30 -16 -188 -7 -305 16 -323 16 -328 2 -2 -7 6 -12 20 -13 14 0 6 -5 -22 -13
-25 -6 -47 -11 -49 -9 -2 1 8 20 23 41 14 21 26 43 26 50 0 9 5 9 20 0 11 -7
18 -19 15 -25 -2 -8 4 -13 15 -13 11 0 20 5 20 11 0 5 -4 7 -10 4 -5 -3 -7 0
-4 8 3 9 -3 16 -15 20 -12 3 -25 16 -30 29 -7 17 -10 18 -10 6 -1 -21 -11 -23
-35 -5 -16 11 -18 24 -14 80 2 37 2 67 1 67 -2 0 -7 -10 -12 -22 -8 -22 -8
-22 -23 7 -8 17 -18 47 -21 69 -7 41 -31 76 -54 76 -9 0 -4 -9 12 -22 16 -15
28 -39 34 -71 5 -27 18 -58 30 -71 14 -15 21 -35 21 -62 0 -44 7 -57 33 -67
24 -9 21 -30 -8 -65 -14 -17 -25 -34 -25 -40 0 -5 -54 -23 -120 -40 -66 -16
-120 -28 -120 -25 0 19 55 104 84 130 20 17 36 36 36 41 0 22 -87 -76 -110
-123 -13 -28 -24 -51 -26 -53 -3 -5 -147 -42 -163 -42 -23 0 -5 130 33 244 32
96 41 142 15 80 l-12 -29 -8 30 c-6 26 -6 25 -4 -8 2 -22 -8 -82 -21 -134 -13
-53 -24 -117 -24 -143 l0 -48 -60 -15 c-59 -14 -61 -14 -75 6 -24 34 -18 79
17 133 18 27 40 66 50 87 24 52 87 157 112 186 35 40 138 110 170 116 17 4
101 10 186 14 85 4 159 9 163 10 4 0 3 -8 -3 -18z m-703 -530 c11 -17 9 -21
-8 -26 -26 -9 -33 -2 -24 24 8 26 17 26 32 2z"/>
<path d="M1515 1396 c-12 -18 -18 -58 -22 -144 -5 -104 -4 -120 12 -135 23
-24 47 -18 63 15 20 43 34 226 19 257 -17 36 -51 39 -72 7z m55 -1 c15 -18 7
-204 -10 -249 -12 -32 -46 -35 -56 -4 -9 28 5 215 19 245 12 27 29 30 47 8z"/>
<path d="M1545 1363 c-4 -10 -9 -67 -10 -128 -4 -109 -4 -109 6 -35 5 41 13
99 18 128 7 51 0 69 -14 35z"/>
<path d="M1028 1252 c-9 -32 -20 -65 -23 -74 -6 -14 -1 -15 30 -8 20 5 38 10
41 12 5 6 -18 128 -25 128 -3 0 -14 -26 -23 -58z m32 -31 c5 -17 5 -31 0 -31
-5 0 -15 -3 -23 -6 -13 -5 -14 1 -5 36 12 46 15 46 28 1z"/>
<path d="M1745 1094 c-11 -32 -30 -71 -43 -86 -13 -15 -19 -28 -14 -28 18 0
61 60 72 101 18 66 7 76 -15 13z"/>
<path d="M1985 1214 c-51 -59 -50 -77 5 -72 21 3 26 10 36 63 7 33 11 61 10
63 -2 1 -25 -23 -51 -54z m24 -27 c-11 -40 -10 -40 -33 -31 -13 5 -11 11 11
40 14 19 27 33 29 31 2 -2 -1 -20 -7 -40z"/>
<path d="M1520 618 c0 -9 5 -20 10 -23 13 -8 13 5 0 25 -8 13 -10 13 -10 -2z"/>
<path d="M2230 1384 c0 -17 -9 -75 -20 -129 -12 -54 -20 -108 -18 -119 2 -12
16 41 31 118 20 99 25 142 18 149 -8 8 -11 2 -11 -19z"/>
<path d="M1270 295 c0 -24 1 -24 19 -8 21 18 19 33 -5 33 -8 0 -14 -10 -14
-25z"/>
<path d="M1324 304 c3 -8 2 -13 -3 -10 -5 3 -11 0 -14 -8 -4 -9 2 -13 17 -12
17 1 21 6 18 23 -2 13 -9 23 -14 23 -6 0 -7 -7 -4 -16z"/>
<path d="M1357 308 c-7 -20 12 -48 28 -42 17 7 20 34 4 34 -5 0 -7 -4 -4 -10
3 -5 1 -10 -4 -10 -18 0 -12 28 7 33 13 4 12 5 -5 6 -12 0 -23 -5 -26 -11z"/>
<path d="M1410 295 c0 -19 5 -25 23 -24 21 0 21 1 2 8 -20 8 -20 8 0 13 20 6
20 6 0 8 -20 1 -20 1 0 10 19 8 19 9 -2 9 -18 1 -23 -5 -23 -24z"/>
<path d="M1478 296 c-3 -14 -2 -26 2 -26 13 0 21 33 12 42 -6 6 -11 -1 -14
-16z"/>
<path d="M1508 300 c-7 -24 -3 -38 8 -28 3 4 4 17 2 30 l-3 23 -7 -25z"/>
<path d="M1535 312 c-10 -11 -5 -40 9 -45 15 -6 29 6 39 33 4 10 6 7 6 -7 1
-13 6 -23 12 -23 6 0 9 9 6 20 -3 10 0 21 7 23 6 3 -8 5 -31 5 -23 0 -44 -3
-48 -6z m27 -17 c0 -5 -5 -11 -11 -13 -6 -2 -11 4 -11 13 0 9 5 15 11 13 6 -2
11 -8 11 -13z"/>
<path d="M1645 295 c0 -14 3 -25 8 -25 4 0 7 5 7 10 0 16 27 12 34 -5 8 -22
36 -6 36 21 0 17 -6 24 -20 24 -11 0 -20 -4 -20 -10 0 -5 -8 -10 -17 -10 -15
0 -16 2 -3 10 12 8 12 10 -5 10 -15 0 -20 -7 -20 -25z m75 0 c0 -8 -4 -15 -10
-15 -5 0 -10 7 -10 15 0 8 5 15 10 15 6 0 10 -7 10 -15z"/>
<path d="M1741 299 c0 -16 5 -29 14 -33 18 -7 29 14 22 41 -4 14 -5 13 -6 -4
0 -13 -5 -23 -10 -23 -5 0 -12 10 -14 23 -4 20 -4 19 -6 -4z"/>
<path d="M1798 308 c8 -8 9 -15 1 -25 -7 -8 -8 -13 -1 -13 12 0 24 29 16 41
-3 5 -10 9 -17 9 -8 0 -8 -3 1 -12z"/>
<path d="M1828 300 c-7 -24 -3 -38 8 -28 3 4 4 17 2 30 l-3 23 -7 -25z"/>
<path d="M1850 295 c0 -22 4 -26 23 -23 14 2 22 10 22 23 0 13 -8 21 -22 23
-19 3 -23 -1 -23 -23z m30 0 c0 -8 -4 -15 -10 -15 -5 0 -10 7 -10 15 0 8 5 15
10 15 6 0 10 -7 10 -15z"/>
</g>
</svg>
